<svg xmlns="http://www.w3.org/2000/svg" viewBox="0 0 40 40">
  <defs>
    <style>
      .cls-1 {
        fill: #002642;
      }
    </style>
  </defs>
  <path id="behance" class="cls-1" d="M8.821,8.679H8.732q0-2.411-2.679-2.5H1.946v4.732H5.964Q8.821,10.911,8.821,8.679ZM8.107,1.357q0-1.964-2.589-1.964H1.946V3.411H5.786Q8.107,3.411,8.107,1.357ZM19.893,3.411a2.812,2.812,0,0,0-2.009.714,2.863,2.863,0,0,0-.848,1.964h5.625Q22.393,3.411,19.893,3.411Zm12.232-13.75a4.133,4.133,0,0,0-1.25-3.036,4.133,4.133,0,0,0-3.036-1.25H-3.589a4.133,4.133,0,0,0-3.036,1.25,4.133,4.133,0,0,0-1.25,3.036V21.089a4.133,4.133,0,0,0,1.25,3.036,4.133,4.133,0,0,0,3.036,1.25H27.839a4.268,4.268,0,0,0,4.286-4.286ZM16.411-.964v-1.7h6.964v1.7ZM12.571,8.857A4.432,4.432,0,0,1,10.7,12.7a7,7,0,0,1-4.2,1.161H-1.8V-3.286H6.321q5.446,0,5.446,4.286a3.029,3.029,0,0,1-.58,1.964A5.687,5.687,0,0,1,9.446,4.3a4.058,4.058,0,0,1,2.321,1.652A5.111,5.111,0,0,1,12.571,8.857ZM26.054,7.518v.714H17.125a3.256,3.256,0,0,0,.759,2.321,2.988,2.988,0,0,0,2.277.8,3.284,3.284,0,0,0,1.607-.446A2.235,2.235,0,0,0,22.839,9.75h2.946a5.556,5.556,0,0,1-5.8,4.2,6.052,6.052,0,0,1-4.6-1.83,6.525,6.525,0,0,1-1.741-4.688A6.588,6.588,0,0,1,15.429,2.7a6.067,6.067,0,0,1,4.6-1.875,5.455,5.455,0,0,1,4.42,1.92A7.188,7.188,0,0,1,26.054,7.518Z" transform="translate(7.875 14.625)"/>
</svg>
