<svg xmlns="http://www.w3.org/2000/svg" viewBox="0 0 48 40">
  <defs>
    <style>
      .cls-1 {
        fill: #e59500;
      }
    </style>
  </defs>
  <path id="email" class="cls-1" d="M47.063-9.271a.431.431,0,0,1,.609-.1A.691.691,0,0,1,48-8.75V12.5a5.106,5.106,0,0,1-1.312,3.542A4.132,4.132,0,0,1,43.5,17.5H4.5a4.132,4.132,0,0,1-3.188-1.458A5.106,5.106,0,0,1,0,12.5V-8.75a.577.577,0,0,1,.328-.573.555.555,0,0,1,.609.052Q4.031-6.667,15.375,2.5l.938.938a37.367,37.367,0,0,0,3.563,2.708A8.141,8.141,0,0,0,24,7.5a7.746,7.746,0,0,0,4.125-1.458,26.225,26.225,0,0,0,3.563-2.708l.937-.833Q43.687-6.354,47.063-9.271ZM24,4.167a5.623,5.623,0,0,1-3-1.25A22.492,22.492,0,0,1,18.094.625L17.156-.1Q5.625-9.479,1.5-13.021l-.656-.521A2.481,2.481,0,0,1,0-15.521V-17.5a5.106,5.106,0,0,1,1.312-3.542A4.132,4.132,0,0,1,4.5-22.5h39a4.132,4.132,0,0,1,3.187,1.458A5.106,5.106,0,0,1,48-17.5v1.979a2.481,2.481,0,0,1-.844,1.979l-.469.417Q42.656-9.583,30.844-.1l-.937.729A22.492,22.492,0,0,1,27,2.917,5.623,5.623,0,0,1,24,4.167Z" transform="translate(0 22.5)"/>
</svg>
