<svg xmlns="http://www.w3.org/2000/svg" viewBox="0 0 40 40">
  <defs>
    <style>
      .cls-1 {
        fill: #002642;
      }
    </style>
  </defs>
  <path id="facebook" class="cls-1" d="M40,3.857a2.1,2.1,0,0,0-.67-1.607,2.218,2.218,0,0,0-1.562-.625H2.232A2.141,2.141,0,0,0,0,3.857V39.393a2.218,2.218,0,0,0,.625,1.563,2.1,2.1,0,0,0,1.607.67H21.339V26.089H16.161V20.107h5.179V15.643A7.781,7.781,0,0,1,23.482,9.75,7.791,7.791,0,0,1,29.107,7.7q2.768,0,4.643.179v5.446H30.536a3.094,3.094,0,0,0-2.411.8,3.318,3.318,0,0,0-.536,2.143v3.839h5.982l-.8,5.982H27.589V41.625H37.768a2.1,2.1,0,0,0,1.607-.67A2.218,2.218,0,0,0,40,39.393Z" transform="translate(0 -1.625)"/>
</svg>
