<svg xmlns="http://www.w3.org/2000/svg" viewBox="0 0 40 40">
  <defs>
    <style>
      .cls-1 {
        fill: #840032;
      }
    </style>
  </defs>
  <path id="linkedin" class="cls-1" d="M48.862,1.625a2.746,2.746,0,0,1,2.009.848,2.746,2.746,0,0,1,.848,2.009V38.768a2.9,2.9,0,0,1-2.857,2.857H14.576a2.9,2.9,0,0,1-2.857-2.857V4.482a2.746,2.746,0,0,1,.848-2.009,2.746,2.746,0,0,1,2.009-.848ZM23.772,35.911h.089V16.8H17.879V35.911Zm-2.946-21.7a3.351,3.351,0,0,0,2.455-1.027,3.343,3.343,0,0,0,0-4.821,3.351,3.351,0,0,0-2.455-1.027,3.206,3.206,0,0,0-2.411,1.027,3.45,3.45,0,0,0,0,4.821A3.206,3.206,0,0,0,20.826,14.214ZM46,35.911V25.464q0-4.464-1.25-6.518-1.7-2.589-5.8-2.589a6.878,6.878,0,0,0-3.661.982,5,5,0,0,0-1.964,2.054h-.089V16.8H27.522V35.911h5.893V26.446a7.326,7.326,0,0,1,.625-3.393,3.149,3.149,0,0,1,2.946-1.518,2.558,2.558,0,0,1,2.679,1.7,9.46,9.46,0,0,1,.446,3.393v9.286Z" transform="translate(-11.719 -1.625)"/>
</svg>
